<?xml version="1.0"?>
<svg xmlns="http://www.w3.org/2000/svg" id="Capa_1" enable-background="new 0 0 512 512" height="512px" viewBox="0 0 512 512" width="512px"><g><g><path d="m407 302c-35.66 0-67.219 17.873-86.205 45.127l-116.132-58.066c3.458-10.4 5.337-21.515 5.337-33.061s-1.879-22.661-5.337-33.061l116.132-58.066c18.986 27.254 50.545 45.127 86.205 45.127 57.897 0 105-47.103 105-105s-47.103-105-105-105-105 47.103-105 105c0 11.546 1.879 22.661 5.337 33.061l-116.132 58.066c-18.986-27.254-50.545-45.127-86.205-45.127-57.897 0-105 47.103-105 105s47.103 105 105 105c35.66 0 67.219-17.873 86.205-45.127l116.132 58.066c-3.458 10.4-5.337 21.515-5.337 33.061 0 57.897 47.103 105 105 105s105-47.103 105-105-47.103-105-105-105z" data-original="#000000" class="active-path" data-old_color="#000000" fill="#FFFFFF"/></g></g> </svg>
